<?xml version="1.0" encoding="utf-8"?>
<!-- Generator: Adobe Illustrator 23.0.3, SVG Export Plug-In . SVG Version: 6.00 Build 0)  -->
<svg version="1.1" id="Camada_1" xmlns="http://www.w3.org/2000/svg" xmlns:xlink="http://www.w3.org/1999/xlink" x="0px" y="0px"
	 viewBox="0 0 521.6 158.1" style="enable-background:new 0 0 521.6 158.1;" xml:space="preserve">
<style type="text/css">
	.st0{fill-rule:evenodd;clip-rule:evenodd;fill:#006633;}
	.st1{fill-rule:evenodd;clip-rule:evenodd;fill:#E30613;}
	.st2{fill-rule:evenodd;clip-rule:evenodd;fill:#C00D0D;}
</style>
<path class="st0" d="M422.8,69.8c3.9,0,63.1,0,63.1,0c5,0,9-0.2,11.7-4.8c2.6-4.3,0.2-10.7-6-11.6c-10.2-1.4-16.4-2-22.2-2.9v0
	c-20.9-2.6-18.5-32.2,5.1-32.2h23.4c2,0.1,3.1,1.9,3.1,3.8c0.1,1.8-0.8,3.7-2.6,3.9c-4,0-22.3,0-22.3,0c-5.1,0-9.1,0.2-11.9,4.7
	c-2.6,4.3-0.2,10.6,6.1,11.5l0,0c1.2,0.1,9.4,1.2,22.1,2.8c20.6,2.6,18.2,32.4-5,32.4h-68.8c-2.3-0.1-4.2-2.1-4.1-4.8V18.4h34.8
	c4.5,0.3,3.2,7.5,0,7.6h-26.7v26.6h26.7c3.5,0,3.2,6.6,0,6.7h-26.7V69.8z"/>
<path class="st0" d="M294.8,70.2h-21.4V20.3c-1.5-3.4-6.6-4-8.6-0.1v57.7h29.8C298,76.3,298.6,72.1,294.8,70.2"/>
<path class="st0" d="M207.6,69.3h-20.5V19.4c-1.5-3.4-6.6-4-8.6-0.1V77h28.9C210.8,75.4,211.4,71.3,207.6,69.3"/>
<path class="st0" d="M23.1,69c3.9,0,62.7,0,62.7,0c5,0,8.9-0.2,11.6-4.7c2.5-4.3,0.2-10.6-6-11.5c-10.1-1.4-16.3-1.9-22-2.8l0,0
	c-20.8-2.6-18.4-32,5.1-32h23.3c2,0.1,3.1,1.9,3.1,3.7c0.1,1.8-0.8,3.7-2.6,3.9c-3.9,0-22.1,0-22.1,0c-5,0-9.1,0.2-11.8,4.7
	c-2.6,4.3-0.2,10.6,6.1,11.4l0,0c1.2,0.1,9.4,1.1,22,2.8c20.5,2.6,18.1,32.2-5,32.2H19.1c-2.2-0.1-4.2-2.1-4.1-4.8V17.9h34.6
	c4.4,0.3,3.2,7.5,0,7.6H23.1v24.6h17.4c3.5,0,3.2,6.6,0,6.6H23.1V69z"/>
<path class="st0" d="M255.1,17.8h-34.6v60.1h8.1V52.6h12.3c3.3-1.5,4-5.7,0.1-7.6h-12.5v-0.4V26.3h26.5
	C258.3,26.2,259.5,18.1,255.1,17.8"/>
<path class="st0" d="M139.8,31l11.6,22.1h-23.3L139.8,31z M115.3,76.6l9.4-16.8H155l9.2,17.1h9.2l-33.5-63.4l-33.7,63.1H115.3z"/>
<path class="st0" d="M371.6,26.3h13.8v0c9.2,0,10.8,5.3,10.8,11.7c0,6.5-1.7,11.8-10.8,11.8l0,0h-13.7L371.6,26.3z M404.5,69.7
	l-15.6-13.2c9.6-1.1,15-8.7,15-18.4c0-10.7-5.2-19.3-19.8-19.4v0h-20.7v53.9c-0.1,2.7,1.9,4.8,4.1,4.8c2.2,0,4.2-2.1,4.1-4.8l0-15.3
	h5.6L399.2,76c2,1.8,4.9,1.7,6.3,0C407,74.3,406.7,71.4,404.5,69.7"/>
<path class="st0" d="M326.9,69.5c-11.8,0-21.3-10.1-21.3-22.5c0-12.4,9.5-22.5,21.3-22.5c11.8,0,21.3,10.1,21.3,22.5
	C348.3,59.5,338.7,69.5,326.9,69.5 M326.9,16.2c-16.2,0-29.3,13.8-29.3,30.9c0,17,13.1,30.9,29.3,30.9c16.2,0,29.3-13.8,29.3-30.9
	C356.2,30,343.1,16.2,326.9,16.2"/>
<polygon class="st1" points="224.3,137.5 224.3,137.5 228,126.4 231.4,126.4 225,143.3 223.2,143.3 216.9,126.4 220.3,126.4 "/>
<rect x="235.8" y="126.4" class="st1" width="3.2" height="16.4"/>
<polygon class="st1" points="249.8,137.5 249.9,137.5 253.5,126.4 257,126.4 250.6,143.3 248.7,143.3 242.5,126.4 245.9,126.4 "/>
<path class="st1" d="M264.2,130.8L264.2,130.8l-1.9,6h3.9L264.2,130.8z M261.4,139.4l-1.4,3.5h-3.4l6.4-16.9h2.5l6.2,16.9h-3.4
	l-1.3-3.5H261.4z"/>
<path class="st1" d="M293.6,130.8c-0.9-1.1-2.2-1.7-3.6-1.7c-3.1,0-4.8,2.8-4.8,5.7c0,2.8,1.8,5.5,4.8,5.5c1.4,0,2.7-0.7,3.6-1.7
	l0,3.8c-1.2,0.6-2.4,1-3.7,1c-4.6,0-8-4-8-8.5c0-4.7,3.3-8.8,8.1-8.8c1.3,0,2.5,0.3,3.7,1L293.6,130.8z"/>
<path class="st1" d="M304.8,129.1c-3,0-4.8,2.7-4.8,5.3c0,2.5,1.3,5.6,4.8,5.6c3.6,0,4.8-3.1,4.8-5.6
	C309.6,131.8,307.8,129.1,304.8,129.1 M304.8,143.3c-5,0-8.1-3.8-8.1-8.7c0-4.9,3.2-8.6,8.1-8.6c4.9,0,8.1,3.7,8.1,8.6
	C312.9,139.4,309.8,143.3,304.8,143.3"/>
<polygon class="st1" points="328.7,132.6 328.7,132.6 325,143.1 323.9,143.1 320.3,132.6 320.2,132.6 318.8,142.8 315.5,142.8 
	318.3,126 320.6,126 324.6,136.8 328.5,126 330.8,126 333.3,142.8 330.1,142.8 "/>
<path class="st1" d="M344.4,129.1c-3,0-4.8,2.7-4.8,5.3c0,2.5,1.3,5.6,4.8,5.6c3.6,0,4.8-3.1,4.8-5.6
	C349.3,131.8,347.5,129.1,344.4,129.1 M344.4,143.3c-5,0-8.1-3.8-8.1-8.7c0-4.9,3.2-8.6,8.1-8.6c4.9,0,8.1,3.7,8.1,8.6
	C352.6,139.4,349.5,143.3,344.4,143.3"/>
<path class="st1" d="M370.1,130.8L370.1,130.8l-1.9,6h3.9L370.1,130.8z M367.3,139.4l-1.4,3.5h-3.4L369,126h2.5l6.2,16.9h-3.4
	l-1.3-3.5H367.3z"/>
<polygon class="st1" points="388.5,126 390.8,126 399.4,137.5 399.5,137.5 399.5,126.4 402.7,126.4 402.7,143.2 400.4,143.2 
	391.7,131.7 391.7,131.7 391.7,142.8 388.5,142.8 "/>
<path class="st1" d="M413.5,130.8L413.5,130.8l-1.9,6h3.9L413.5,130.8z M410.8,139.4l-1.3,3.5H406l6.4-16.9h2.5l6.2,16.9h-3.4
	l-1.3-3.5H410.8z"/>
<polygon class="st1" points="428.4,142.8 425.2,142.8 425.2,129.2 421.9,129.2 421.9,126.4 431.7,126.4 431.7,129.2 428.4,129.2 "/>
<path class="st1" d="M435.2,126.4h3.2v9.2c0,2,0.2,4.9,2.9,4.9c2.7,0,2.9-2.9,2.9-4.9l0-9.2h3.2v9.8c0,4-1.7,7-6.1,7
	c-4.4,0-6.1-3-6.1-7V126.4z"/>
<path class="st1" d="M455,134h0.4c1.8,0,3-0.5,3-2.5c0-2-1.3-2.4-3-2.4H455V134z M463,142.8h-3.9l-4-6.6h0v6.6h-3.2v-16.4h4.3
	c3.2,0,5.5,1.4,5.5,4.9c0,2.1-1.2,4.2-3.4,4.6L463,142.8z"/>
<polygon class="st1" points="469.6,129.2 469.6,132.8 474.7,132.8 474.7,135.6 469.6,135.6 469.6,140.1 474.9,140.1 474.9,142.8 
	466.4,142.8 466.4,126.4 474.9,126.4 474.9,129.2 "/>
<polygon class="st1" points="490.6,140.1 490.6,142.8 478.7,142.8 485.9,129.2 479.8,129.2 479.8,126.4 491,126.4 483.8,140.1 "/>
<path class="st1" d="M501.3,130.8L501.3,130.8l-1.9,6h3.9L501.3,130.8z M498.5,139.4l-1.4,3.5h-3.4l6.4-16.9h2.5l6.2,16.9h-3.4
	l-1.3-3.5H498.5z"/>
<path class="st0" d="M81.6,117.2c0.1-1,0.1-2,0.1-3c-6.3,0.4-12.6,0.7-19.1,0.5c-19-0.4-37.8-5.1-51.7-13c0.4,2,4.2,10,4.6,12.1
	c17.8,7.9,39.5,9.2,58.4,7.5c2.6-0.2,5.1-0.5,7.5-0.9C81.4,119.3,81.5,118.3,81.6,117.2"/>
<path class="st0" d="M500,100.8c-21.3-11.9-58.4-10.8-67.8-10.7c-57,1.1-197.2,22.1-217.9,25.1c-19.8,2.9-28.9-5.9-15-23.9
	c-13.7,5.5-31.4,12.2-48.6,14.8c0.5,2.4,0.8,4.7,1,7.1c15.7-3.5,30.5-10.8,39.8-14.9c-4.4,6.5-8.2,26.7,23.1,21.9
	c31.2-4.8,251-44.8,294.8-2.4C509.9,117,510.3,107.8,500,100.8"/>
<path class="st2" d="M97.3,83c2.8,5.4,1.6,9.9-3,15.6c-4.6,5.7-12.4,14.7-4.8,28.5c4.2-14.4,9.1-27,18.9-32.5
	c9.8-5.5,5-8.1-1.7-10.4C99.9,82,98,82.6,97.3,83"/>
<path class="st2" d="M98.3,116.2c-3.9,4.6-6.6,10.7-1.9,16.9c4.8,6.2,13.4,9.6,19.5,7.8c6.1-1.9,10-4.2,15.2-9.9
	C121.2,129.1,107.3,125.3,98.3,116.2"/>
<path class="st2" d="M108.9,98c-5.6,4.9-9.7,10.8-11.8,16.5c13.3-5,27.2,7.5,33.7,3.8C119.2,115,111.1,111.7,108.9,98"/>
<path class="st2" d="M125.7,94.8c-10.6-2-16.2,0.1-13.7,6.4c2.5,6.3,9.1,11.1,9.9,11.8C119.1,104.2,115.8,99.9,125.7,94.8"/>
<path class="st2" d="M123.4,100c-1,6.2-1.5,12.5,7.4,15.1C133,110.4,131.7,103.8,123.4,100"/>
<path class="st2" d="M102.2,115.9c10.9-1.7,23,8.9,30.4,5.8c9-3.8,11.5-6.9,13.1-16.8c3.8,17.5-10,23.6-15.6,23.3
	C115.1,127.4,105.4,116.3,102.2,115.9"/>
<path class="st2" d="M93.4,134.9c8.8,8,19.8,13.2,28.5,7.6c8.7-5.6,14.7-16.3,19.3-14.2c4.6,2.1,0.1,12.5-2.3,15.8
	c-2.4,3.3-5.7,7.2-5.7,7.2s-3.3-3.7-10.7-2.8C115.1,149.5,98.5,150,93.4,134.9"/>
<path class="st2" d="M118.8,87.6c6-0.7,22.5,2.9,27.3,13.1C143.4,88.2,129.4,81.8,118.8,87.6"/>
<path class="st2" d="M129,94.3c5.9,2.7,16.9,12,7.9,21.5C151.8,111.5,146.9,96.3,129,94.3"/>
<path class="st1" d="M413.5,131.8L413.5,131.8l-1.9,6h3.9L413.5,131.8z M410.8,140.4l-1.3,3.5H406l6.4-16.9h2.5l6.2,16.9h-3.4
	l-1.3-3.5H410.8z"/>
</svg>
